<?xml version="1.0" standalone="no"?>
<!DOCTYPE svg PUBLIC "-//W3C//DTD SVG 20010904//EN"
 "http://www.w3.org/TR/2001/REC-SVG-20010904/DTD/svg10.dtd">
<svg version="1.0" xmlns="http://www.w3.org/2000/svg"
 width="260.000000pt" height="260.000000pt" viewBox="0 0 260.000000 260.000000"
 preserveAspectRatio="xMidYMid meet">
<metadata>
Created by potrace 1.14, written by Peter Selinger 2001-2017
</metadata>
<g transform="translate(0.000000,260.000000) scale(0.100000,-0.100000)"
fill="#000000" stroke="none">
<path d="M770 1994 c-17 -36 -30 -68 -30 -70 0 -2 -18 -42 -40 -89 -22 -47
-40 -87 -40 -89 0 -3 -13 -33 -29 -68 -16 -35 -82 -182 -146 -328 -64 -146
-125 -283 -135 -305 -234 -523 -231 -505 -101 -505 87 0 86 -1 118 75 12 28
37 84 56 125 18 41 46 105 62 143 l29 67 228 0 c256 0 232 9 243 -90 3 -30 10
-82 15 -115 5 -33 11 -80 15 -105 3 -25 7 -54 9 -65 3 -11 5 -23 5 -27 1 -5
38 -8 83 -8 61 0 86 4 100 16 16 16 18 15 24 0 6 -15 31 -16 253 -15 271 1
312 7 413 61 67 36 159 121 207 191 46 68 106 199 131 287 87 306 85 593 -5
771 -38 74 -120 152 -192 180 -55 22 -70 23 -328 24 l-270 0 -6 -45 c-11 -74
-18 -124 -23 -150 -4 -22 -16 -100 -32 -210 -5 -34 -28 -183 -59 -375 -8 -49
-17 -110 -20 -135 -3 -25 -8 -57 -11 -72 -9 -56 -13 -85 -24 -163 -7 -44 -14
-89 -16 -100 -2 -10 -6 -37 -10 -60 -3 -22 -8 -47 -9 -55 -2 -8 -4 -30 -4 -49
-2 -70 -12 -23 -36 159 -2 19 -7 53 -9 75 -3 22 -12 87 -20 145 -9 58 -20 143
-27 190 -6 47 -12 94 -14 105 -1 11 -5 45 -9 75 -4 30 -9 66 -11 80 -2 14 -7
45 -10 70 -4 41 -21 160 -30 220 -2 14 -7 48 -10 75 -4 28 -8 61 -10 75 -2 14
-7 50 -10 80 -4 30 -9 58 -11 62 -3 5 -55 8 -115 8 l-110 0 -29 -66z m1172
-136 c79 -23 145 -121 164 -239 14 -92 5 -255 -22 -389 -51 -252 -160 -427
-297 -478 -49 -19 -79 -22 -203 -22 l-146 0 6 53 c4 28 25 168 46 309 22 142
43 275 46 295 3 21 9 63 14 93 11 63 18 110 24 160 6 44 26 178 32 208 4 22 7
22 151 22 84 0 163 -5 185 -12z m-1068 -143 c3 -22 10 -78 16 -125 6 -47 13
-98 16 -114 3 -16 7 -48 9 -70 2 -23 6 -59 10 -81 15 -104 22 -170 20 -173 -1
-1 -79 -1 -172 0 l-170 3 114 260 c62 143 120 275 128 294 8 18 15 38 15 44 0
23 9 -1 14 -38z"/>
</g>
</svg>
