<svg version="1.0" xmlns="http://www.w3.org/2000/svg" width="346.667" height="346.667" viewBox="0 0 260 260"><path d="M77 60.6c-1.7 3.6-3 6.8-3 7 0 .2-1.8 4.2-4 8.9s-4 8.7-4 8.9c0 .3-1.3 3.3-2.9 6.8-1.6 3.5-8.2 18.2-14.6 32.8-6.4 14.6-12.5 28.3-13.5 30.5C11.6 207.8 11.9 206 24.9 206c8.7 0 8.6.1 11.8-7.5 1.2-2.8 3.7-8.4 5.6-12.5 1.8-4.1 4.6-10.5 6.2-14.3l2.9-6.7h22.8c25.6 0 23.2-.9 24.3 9 .3 3 1 8.2 1.5 11.5.5 3.3 1.1 8 1.5 10.5.3 2.5.7 5.4.9 6.5.3 1.1.5 2.3.5 2.7.1.5 3.8.8 8.3.8 6.1 0 8.6-.4 10-1.6 1.6-1.6 1.8-1.5 2.4 0 .6 1.5 3.1 1.6 25.3 1.5 27.1-.1 31.2-.7 41.3-6.1 6.7-3.6 15.9-12.1 20.7-19.1 4.6-6.8 10.6-19.9 13.1-28.7 8.7-30.6 8.5-59.3-.5-77.1-3.8-7.4-12-15.2-19.2-18-5.5-2.2-7-2.3-32.8-2.4h-27l-.6 4.5c-1.1 7.4-1.8 12.4-2.3 15-.4 2.2-1.6 10-3.2 21-.5 3.4-2.8 18.3-5.9 37.5-.8 4.9-1.7 11-2 13.5-.3 2.5-.8 5.7-1.1 7.2-.9 5.6-1.3 8.5-2.4 16.3-.7 4.4-1.4 8.9-1.6 10-.2 1-.6 3.7-1 6-.3 2.2-.8 4.7-.9 5.5-.2.8-.4 3-.4 4.9-.2 7-1.2 2.3-3.6-15.9-.2-1.9-.7-5.3-.9-7.5-.3-2.2-1.2-8.7-2-14.5-.9-5.8-2-14.3-2.7-19-.6-4.7-1.2-9.4-1.4-10.5-.1-1.1-.5-4.5-.9-7.5s-.9-6.6-1.1-8c-.2-1.4-.7-4.5-1-7-.4-4.1-2.1-16-3-22-.2-1.4-.7-4.8-1-7.5-.4-2.8-.8-6.1-1-7.5-.2-1.4-.7-5-1-8-.4-3-.9-5.8-1.1-6.2-.3-.5-5.5-.8-11.5-.8h-11L77 60.6zm117.2 13.6c7.9 2.3 14.5 12.1 16.4 23.9 1.4 9.2.5 25.5-2.2 38.9-5.1 25.2-16 42.7-29.7 47.8-4.9 1.9-7.9 2.2-20.3 2.2h-14.6l.6-5.3c.4-2.8 2.5-16.8 4.6-30.9 2.2-14.2 4.3-27.5 4.6-29.5.3-2.1.9-6.3 1.4-9.3 1.1-6.3 1.8-11 2.4-16 .6-4.4 2.6-17.8 3.2-20.8.4-2.2.7-2.2 15.1-2.2 8.4 0 16.3.5 18.5 1.2zM87.4 88.5c.3 2.2 1 7.8 1.6 12.5.6 4.7 1.3 9.8 1.6 11.4.3 1.6.7 4.8.9 7 .2 2.3.6 5.9 1 8.1 1.5 10.4 2.2 17 2 17.3-.1.1-7.9.1-17.2 0l-17-.3 11.4-26c6.2-14.3 12-27.5 12.8-29.4.8-1.8 1.5-3.8 1.5-4.4 0-2.3.9.1 1.4 3.8z"/></svg>